<?xml version="1.0" standalone="no"?>
<!DOCTYPE svg PUBLIC "-//W3C//DTD SVG 20010904//EN"
 "http://www.w3.org/TR/2001/REC-SVG-20010904/DTD/svg10.dtd">
<svg version="1.0" xmlns="http://www.w3.org/2000/svg"
 width="2974.000000pt" height="2974.000000pt" viewBox="0 0 2974.000000 2974.000000"
 preserveAspectRatio="xMidYMid meet">
<metadata>
Created by potrace 1.11, written by Peter Selinger 2001-2013
</metadata>
<g transform="translate(0.000000,2974.000000) scale(0.100000,-0.100000)"
fill="#000000" stroke="none">
<path d="M14769 29736 c-2 -2 -17 -6 -34 -9 -203 -34 -412 -186 -515 -372 -12
-22 -23 -41 -25 -43 -2 -3 -63 24 -85 38 -30 19 -176 79 -270 110 -153 52
-335 94 -497 115 -24 3 -60 7 -80 10 -224 28 -628 19 -863 -21 -14 -2 -46 -6
-71 -9 -25 -3 -56 -8 -70 -10 -13 -3 -37 -8 -54 -10 -121 -21 -367 -79 -505
-119 -30 -9 -63 -18 -72 -21 -61 -14 -405 -136 -536 -189 -148 -60 -197 -81
-332 -143 -82 -38 -370 -180 -410 -202 -19 -11 -93 -53 -165 -92 -175 -97
-173 -96 -232 -132 -29 -18 -90 -54 -135 -82 -300 -180 -960 -651 -1138 -811
-28 -25 -47 -33 -95 -38 -301 -35 -549 -104 -814 -228 -57 -26 -105 -48 -108
-48 -7 0 -352 -173 -428 -215 -519 -285 -904 -613 -1167 -995 -75 -108 -94
-141 -154 -260 -35 -72 -93 -202 -109 -250 -1 -3 -4 -12 -8 -20 -38 -98 -86
-304 -111 -480 -24 -171 -25 -536 -2 -680 3 -14 7 -52 11 -85 6 -54 27 -184
40 -242 4 -18 -6 -27 -58 -56 -34 -20 -92 -64 -129 -99 -110 -106 -163 -189
-318 -496 -175 -347 -234 -420 -425 -522 -170 -91 -347 -212 -489 -334 -84
-71 -244 -232 -301 -300 -22 -27 -45 -54 -51 -60 -6 -6 -42 -54 -80 -106 -139
-188 -281 -440 -366 -650 -49 -119 -51 -124 -54 -135 -2 -5 -24 -71 -49 -145
-41 -120 -115 -393 -129 -475 -3 -16 -7 -41 -10 -55 -14 -67 -45 -261 -51
-310 -3 -30 -7 -71 -10 -90 -45 -373 -50 -957 -10 -1320 2 -25 7 -76 10 -115
3 -38 8 -81 10 -95 3 -14 7 -47 10 -75 7 -65 12 -102 20 -145 3 -19 8 -48 11
-64 2 -15 1 -33 -4 -40 -54 -68 -341 -667 -421 -876 -12 -30 -26 -64 -31 -75
-14 -28 -109 -290 -125 -345 -8 -25 -28 -90 -46 -145 -64 -202 -160 -601 -185
-765 -3 -19 -7 -46 -10 -60 -3 -14 -7 -41 -10 -60 -2 -19 -6 -48 -9 -65 -28
-195 -39 -375 -39 -635 -1 -188 7 -368 18 -430 2 -14 7 -47 10 -75 3 -27 8
-59 10 -70 2 -11 7 -40 10 -65 5 -38 38 -200 51 -250 2 -8 8 -35 14 -60 11
-50 96 -313 111 -345 5 -11 20 -48 34 -82 23 -55 103 -224 126 -263 4 -8 36
-61 69 -117 34 -56 61 -105 61 -110 0 -4 -15 -24 -33 -43 -106 -115 -233 -287
-330 -449 -197 -329 -316 -631 -391 -998 -33 -157 -38 -193 -54 -348 -14 -142
-6 -622 12 -676 3 -8 7 -36 10 -64 3 -27 8 -59 10 -70 4 -23 17 -101 19 -112
1 -10 44 -174 72 -273 19 -70 110 -355 139 -437 71 -203 223 -529 306 -658 11
-16 23 -37 26 -45 7 -14 141 -224 156 -245 5 -5 48 -62 96 -126 155 -208 338
-407 530 -577 35 -31 69 -62 76 -68 48 -45 277 -216 385 -288 72 -48 130 -90
127 -94 -2 -4 -7 -29 -10 -57 -3 -27 -8 -61 -10 -75 -35 -203 -41 -740 -11
-980 2 -19 7 -55 10 -80 11 -93 16 -125 20 -140 2 -8 7 -35 10 -60 3 -25 10
-61 15 -80 5 -19 11 -52 14 -73 9 -56 60 -256 95 -367 101 -325 243 -647 401
-911 44 -73 80 -134 80 -135 0 -3 157 -229 172 -249 103 -131 155 -196 217
-270 42 -49 87 -103 101 -119 233 -275 549 -538 876 -728 99 -58 355 -188 369
-188 4 0 30 -11 59 -24 143 -65 487 -165 690 -201 49 -8 90 -16 91 -18 1 -1
16 -36 33 -77 28 -67 148 -312 172 -350 5 -8 31 -51 57 -95 401 -681 1066
-1240 1818 -1530 164 -63 363 -126 480 -151 11 -2 29 -6 40 -8 11 -3 65 -14
120 -25 97 -19 131 -24 225 -36 25 -3 61 -8 80 -10 77 -10 273 -19 415 -19
150 0 434 12 477 19 13 2 52 6 88 10 59 5 154 16 265 31 22 3 43 8 47 10 9 6
9 12 10 -205 1 -90 5 -184 10 -210 5 -25 11 -58 13 -72 26 -144 163 -341 303
-437 131 -89 282 -134 437 -131 356 7 644 244 726 599 9 40 13 171 13 475 l1
420 40 21 c233 120 229 118 391 212 146 86 391 264 538 392 23 20 48 41 57 48
14 11 16 -52 16 -706 1 -394 2 -737 3 -762 10 -176 112 -390 238 -501 62 -55
76 -65 138 -101 212 -123 486 -131 704 -22 226 113 368 308 414 564 3 14 5
366 5 782 l1 758 123 -103 c173 -145 405 -306 592 -412 114 -65 460 -235 477
-235 4 0 31 -11 60 -24 29 -13 69 -29 88 -36 19 -7 44 -16 55 -21 68 -31 446
-148 560 -174 6 -2 28 -7 50 -13 22 -6 51 -13 65 -16 238 -50 374 -76 415 -81
28 -3 57 -8 65 -10 8 -2 35 -7 60 -10 25 -3 56 -8 70 -10 37 -6 119 -16 170
-21 25 -2 63 -6 85 -8 242 -24 786 -25 925 -1 14 2 45 7 70 10 100 13 180 27
275 46 55 12 107 22 115 24 8 2 40 10 71 19 31 9 65 18 75 21 31 6 204 62 274
88 61 23 90 35 185 75 61 26 323 157 385 193 561 325 1061 836 1373 1405 47
86 157 311 157 321 0 4 7 23 17 44 16 37 30 44 109 54 40 5 140 27 214 47 41
11 85 22 97 24 39 7 262 84 367 126 112 44 411 191 436 213 9 8 20 15 24 15
18 0 377 248 406 279 3 3 32 28 65 55 91 75 333 320 416 421 69 84 110 132
134 159 30 33 130 162 186 241 184 256 336 523 454 800 26 61 53 124 61 142 8
17 14 36 14 42 0 6 4 19 9 29 38 69 131 390 177 604 9 45 25 127 29 155 2 15
6 39 9 53 5 29 14 93 22 165 3 28 8 61 10 75 9 56 19 286 18 455 -1 227 -10
350 -40 575 -4 30 -8 60 -9 65 0 6 38 34 85 64 347 221 703 544 976 886 295
371 540 829 679 1271 26 82 60 190 76 239 78 248 125 472 147 710 9 103 8 479
-2 570 -11 107 -32 250 -43 300 -2 11 -6 29 -7 40 -2 11 -15 68 -30 126 -122
491 -373 966 -697 1323 l-37 40 49 78 c68 108 160 285 207 398 37 89 53 128
57 140 1 3 4 12 8 20 18 46 74 228 81 265 1 6 5 19 9 30 3 11 8 31 11 45 3 14
8 36 11 50 7 29 33 161 40 199 2 14 6 40 9 56 43 254 54 777 21 1035 -2 19 -7
55 -10 80 -20 160 -27 214 -40 285 -8 44 -17 96 -20 115 -3 19 -11 55 -16 80
-6 25 -12 54 -15 65 -29 152 -131 512 -190 680 -14 39 -28 81 -30 95 -3 13 -9
29 -13 35 -5 5 -18 37 -29 70 -37 106 -49 137 -122 310 -75 177 -268 577 -339
703 -35 62 -41 79 -36 110 3 20 8 55 11 77 3 22 9 65 14 95 5 30 12 84 15 120
3 36 8 76 10 90 2 14 7 63 10 110 4 47 8 101 10 120 21 191 21 763 0 970 -3
31 -9 100 -19 210 -2 19 -6 51 -9 70 -4 19 -9 58 -12 85 -8 73 -34 224 -45
270 -5 22 -12 52 -14 68 -3 15 -7 35 -10 45 -3 9 -7 28 -10 42 -12 73 -77 294
-126 437 -208 594 -552 1081 -1004 1422 -118 88 -229 160 -377 240 -110 61
-174 118 -235 211 -41 65 -134 246 -166 325 -42 104 -157 327 -177 345 -3 3
-19 24 -35 47 -44 65 -132 143 -214 189 -40 22 -47 47 -31 109 8 32 17 87 25
145 2 19 6 49 8 65 29 205 27 572 -3 760 -5 33 -12 76 -15 96 -3 20 -8 42 -10
50 -3 8 -7 26 -10 40 -9 52 -49 186 -86 284 -90 241 -220 465 -398 684 -109
135 -359 365 -532 491 -41 30 -77 57 -80 60 -3 3 -12 10 -21 15 -10 6 -70 44
-135 86 -66 42 -141 89 -169 104 -27 15 -77 43 -110 62 -62 34 -387 196 -509
252 -273 127 -539 209 -761 236 -27 3 -59 8 -70 10 -11 2 -36 4 -55 4 -25 1
-45 11 -70 34 -40 37 -207 168 -355 278 -55 41 -104 78 -110 82 -30 25 -234
165 -400 276 -463 309 -973 588 -1410 770 -55 23 -109 46 -120 51 -50 23 -354
135 -395 145 -3 1 -12 4 -20 8 -8 3 -61 20 -117 37 -57 18 -103 35 -103 39 0
8 -117 130 -145 151 -142 105 -270 150 -440 155 -166 5 -299 -31 -437 -119
-17 -10 -57 -14 -158 -14 -164 1 -361 -11 -445 -25 -16 -3 -64 -11 -105 -17
-224 -35 -499 -122 -681 -215 l-67 -34 -12 29 c-32 78 -146 206 -239 268 -89
59 -128 77 -236 109 -46 13 -286 29 -296 19z"/>
</g>
</svg>
