<svg id="Layer_1" data-name="Layer 1" xmlns="http://www.w3.org/2000/svg" viewBox="0 0 244.33 227.8"><defs><style>.cls-1,.cls-3{fill:#243e90;}.cls-2{fill:#69c;}.cls-3{font-size:26.88px;font-family:Courier-Bold, Courier;font-weight:700;}</style></defs><path class="cls-1" d="M132.09,129.55c0-6.72-4.66-12.19-10.39-12.19s-10.39,5.47-10.39,12.19,4.66,12.19,10.39,12.19S132.09,136.27,132.09,129.55Z" transform="translate(-5.86 -17.4)"/><path class="cls-1" d="M42.34,55.44c8.94,0,16.21-8.53,16.21-19s-7.27-19-16.21-19-16.2,8.53-16.2,19S33.41,55.44,42.34,55.44Zm0-29.64c5,0,9,4.76,9,10.62S47.33,47,42.34,47s-9.05-4.76-9.05-10.62S37.35,25.8,42.34,25.8Z" transform="translate(-5.86 -17.4)"/><path class="cls-1" d="M234,111.46c-8.94,0-16.21,8.53-16.21,19s7.27,19,16.21,19,16.21-8.54,16.21-19S242.92,111.46,234,111.46Zm0,29.64c-5,0-9-4.77-9-10.62s4.06-10.62,9-10.62,9.05,4.76,9.05,10.62S239,141.1,234,141.1Z" transform="translate(-5.86 -17.4)"/><path class="cls-1" d="M42.34,203.66c-8.93,0-16.2,8.53-16.2,19s7.27,19,16.2,19,16.21-8.53,16.21-19S51.28,203.66,42.34,203.66Zm0,29.64c-5,0-9.05-4.77-9.05-10.62s4.06-10.62,9.05-10.62,9,4.76,9,10.62S47.34,233.3,42.34,233.3Z" transform="translate(-5.86 -17.4)"/><path class="cls-2" d="M217.3,145.88c-7.12,4.4-16.49,8.19-27.44,11.23a320.15,320.15,0,0,0-17.25-27.56A320.57,320.57,0,0,0,189.87,102c11.5,3.2,21.25,7.22,28.49,11.92l3.46-7.35c-7.24-4.7-16.79-8.76-28-12,1.52-3,2.93-5.91,4.24-8.79,11.4-25.08,13.31-43.16,5.54-52.29s-23.19-6.88-44.56,6.49c-11.74,7.35-24.49,17.59-37.39,29.93C101.09,50.17,81,35.9,65.48,30.45l-2.06,8c14.41,5.07,33.23,18.38,52.68,36.82q-5,5-9.9,10.3a257.48,257.48,0,0,0-49.3,6.88c-6-11.5-10.45-22.18-12.79-31.34l-6.86,2.42c2.34,9.13,6.57,19.63,12.34,30.9-2.87.84-5.65,1.74-8.31,2.7-23.17,8.27-35.42,19.47-35.42,32.38s12.25,24.1,35.42,32.38c2.66.95,5.44,1.85,8.31,2.7-5.77,11.26-10,21.77-12.34,30.9L44.11,198c2.34-9.16,6.75-19.84,12.79-31.34a258.27,258.27,0,0,0,49.3,6.88q4.93,5.32,9.89,10.3c-19.44,18.43-38.26,31.74-52.67,36.82l2.06,8c15.47-5.45,35.61-19.73,56.2-39.39,12.9,12.34,25.65,22.58,37.39,29.92,12.76,8,23.39,12,31.54,12,5.51,0,9.88-1.83,13-5.5,7.77-9.13,5.86-27.21-5.54-52.29q-2-4.33-4.25-8.81c10.59-3.1,19.72-6.9,26.79-11.26ZM182.37,159a250.76,250.76,0,0,1-37.13,5.54q1.59-1.81,3.17-3.68c7-8.15,13.49-16.46,19.53-24.76C173.28,143.86,178.12,151.54,182.37,159Zm-14.43-36c-6-8.3-12.58-16.62-19.53-24.77q-1.57-1.86-3.18-3.68a248.79,248.79,0,0,1,37.15,5.53C178.13,107.54,173.28,115.23,167.94,123Zm-5.51-75.66c17.53-11,31-13.94,36.13-8s2.56,21.83-6.78,42.4q-2.4,5.26-5.28,10.76a260.5,260.5,0,0,0-49.29-6.9q-5-5.34-9.92-10.31C139.44,63.78,151.41,54.22,162.43,47.32ZM121.7,80.74q2.23,2.22,4.47,4.53c-1.48,0-3,0-4.46,0s-3,0-4.48,0Q119.47,83,121.7,80.74ZM98.19,94.51C97.13,95.74,96.06,97,95,98.21c-6.93,8.14-13.47,16.46-19.5,24.78-5.36-7.79-10.21-15.49-14.45-22.92A245,245,0,0,1,98.19,94.51Zm-44.6,62.61C28.21,150,13,139.46,13,129.55S28.21,109.07,53.59,102c4.95,8.92,10.76,18.2,17.25,27.57C64.35,138.91,58.54,148.2,53.59,157.12ZM61.05,159c4.24-7.44,9.09-15.13,14.45-22.92,6,8.32,12.57,16.64,19.5,24.77,1.06,1.25,2.13,2.48,3.19,3.7A246.38,246.38,0,0,1,61.05,159Zm48.07,6.19c-3-3.33-6.06-6.76-9.05-10.27-7.13-8.36-13.82-16.9-19.94-25.4,6.12-8.5,12.81-17,19.94-25.4,3-3.51,6-6.94,9.05-10.27q6.15-.24,12.59-.25t12.58.26q4.56,5,9.06,10.26c7.13,8.37,13.82,16.9,20,25.4-6.13,8.5-12.83,17-20,25.4-3,3.51-6,6.93-9,10.26q-6.24.25-12.59.26T109.12,165.22Zm12.58,13.14c-1.49-1.49-3-3-4.47-4.53,1.49,0,3,0,4.48,0s3,0,4.46,0Q123.94,176.14,121.7,178.36Zm76.86,41.38c-5.09,6-18.6,3-36.13-8-11-6.89-23-16.46-35.14-28q5-5,9.93-10.31a261.85,261.85,0,0,0,49.27-6.92q2.88,5.5,5.29,10.78C201.12,197.91,203.66,213.76,198.56,219.74Z" transform="translate(-5.86 -17.4)"/><text class="cls-3" transform="translate(42.48 152.7) scale(0.85 1)">T</text><text class="cls-3" transform="translate(144.19 36.56) scale(0.85 1)">T</text><text class="cls-3" transform="translate(158.69 27.19) scale(0.85 1)">T</text><text class="cls-3" transform="translate(61.93 119.22) scale(0.85 1)">T</text><text class="cls-3" transform="translate(160.28 212.44) scale(0.85 1)">T</text><text class="cls-3" transform="translate(91.98 190.98) scale(0.85 1)">T</text><text class="cls-3" transform="translate(77.68 100.18) scale(0.85 1)">A</text><text class="cls-3" transform="translate(94.38 80.02) scale(0.85 1)">G</text><text class="cls-3" transform="translate(109.75 64.79) scale(0.85 1)">G</text><text class="cls-3" transform="translate(30.65 177.27) scale(0.85 1)">G</text><text class="cls-3" transform="translate(185.64 68.99) scale(0.85 1)">G</text><text class="cls-3" transform="translate(93.57 50.25) scale(0.85 1)">G</text><text class="cls-3" transform="translate(191.11 49.27) scale(0.85 1)">G</text><text class="cls-3" transform="translate(176.01 87.19) scale(0.85 1)">T</text><text class="cls-3" transform="translate(197.44 94.06) scale(0.85 1)">T</text><text class="cls-3" transform="translate(61.93 28.22) scale(0.85 1)">T</text><text class="cls-3" transform="translate(156.44 118.71) scale(0.85 1)">T</text><text class="cls-3" transform="translate(141.65 100.59) scale(0.85 1)">T</text><text class="cls-3" transform="translate(141.17 138.6) scale(0.85 1)">C</text><text class="cls-3" transform="translate(126.66 158.13) scale(0.85 1)">C</text><text class="cls-3" transform="translate(109.46 175.03) scale(0.85 1)">C</text><text class="cls-3" transform="translate(176.01 152.7) scale(0.85 1)">A</text><text class="cls-3" transform="translate(75.69 158.13) scale(0.85 1)">A</text><text class="cls-3" transform="translate(58.11 156.43) scale(0.85 1)">A</text><text class="cls-3" transform="translate(151.53 82.82) scale(0.85 1)">A</text><text class="cls-3" transform="translate(174.92 22.9) scale(0.85 1)">A</text><text class="cls-3" transform="translate(126.98 80.58) scale(0.85 1)">G</text><text class="cls-3" transform="translate(126.98 50.25) scale(0.85 1)">G</text><text class="cls-3" transform="translate(190.05 29.64) scale(0.85 1)">G</text><text class="cls-3" transform="translate(153.22 157.01) scale(0.85 1)">T</text><text class="cls-3" transform="translate(94.86 159.25) scale(0.85 1)">C</text><text class="cls-3" transform="translate(185.64 172.82) scale(0.85 1)">C</text><text class="cls-3" transform="translate(193 196.98) scale(0.85 1)">C</text><text class="cls-3" transform="translate(180.18 216.96) scale(0.85 1)">C</text><text class="cls-3" transform="translate(79.02 137.43) scale(0.85 1)">C</text><text class="cls-3" transform="translate(22.24 145.73) scale(0.85 1)">C</text><text class="cls-3" transform="translate(3.24 134.96) scale(0.85 1)">C</text><text class="cls-3" transform="translate(0.29 108.29) scale(0.85 1)">C</text><text class="cls-3" transform="translate(42.48 87.19) scale(0.85 1)">A</text><text class="cls-3" transform="translate(141.17 201.86) scale(0.85 1)">A</text><text class="cls-3" transform="translate(32.82 64.79) scale(0.85 1)">A</text><text class="cls-3" transform="translate(124.86 189.57) scale(0.85 1)">A</text><text class="cls-3" transform="translate(75.69 203.38) scale(0.85 1)">A</text><text class="cls-3" transform="translate(57.4 213.78) scale(0.85 1)">A</text><text class="cls-3" transform="translate(195.89 145.73) scale(0.85 1)">A</text><text class="cls-3" transform="translate(79.02 38.04) scale(0.85 1)">A</text><text class="cls-3" transform="translate(22.24 95.04) scale(0.85 1)">A</text><text class="cls-3" transform="translate(66.92 82.99) scale(0.85 1)">G</text></svg>