<svg xmlns="http://www.w3.org/2000/svg" viewBox="0 0 613.89 713.52"><defs><style>.cls-1,.cls-2{fill:#69c;}.cls-1{stroke:#231f20;}.cls-1,.cls-5{stroke-miterlimit:10;stroke-width:7px;}.cls-3{fill:#010101;}.cls-4{writing-mode:tb;text-orientation:upright;glyph-orientation-vertical:0deg;font-size:60px;fill:#231f20;font-family:Bicyclette-Black, Bicyclette;font-weight:800;letter-spacing:-0.3em;}.cls-5{fill:none;stroke:#010101;}</style></defs><g id="Layer_2" data-name="Layer 2"><path class="cls-1" d="M587.88,387.08a71.77,71.77,0,0,0,7.34-12.93c18.16-42.77-8.46-92.82-15.24-104.51,2.62-14.79,11.58-81.77-36-106.16-11.43-5.9-10-25.45-22.62-27.65,11.8-48.91-23.16-67.76-48.85-79.16A55.16,55.16,0,0,0,452.65,52,6.71,6.71,0,0,0,451,50.1C403.86,12.23,355.7-2.27,325.24,12.39a44.59,44.59,0,0,0-20,18.8,44.52,44.52,0,0,0-20-18.8c-30.5-14.62-78.65-.12-125.8,37.75a7,7,0,0,0-1.62,1.94A55.79,55.79,0,0,0,138,56.71C112.32,68.11,78.5,86.92,90.3,135.83,77.63,138,78,157.62,66.54,163.52,19,187.88,27.92,254.9,30.55,269.69c-6.84,11.69-33.41,61.74-15.25,104.5a72.08,72.08,0,0,0,7.35,12.93A71.9,71.9,0,0,0,5.91,461.63a94,94,0,0,0,43.71,56.78,98.82,98.82,0,0,0,23.31,83.67,78.64,78.64,0,0,0,51.87,29.26,84.75,84.75,0,0,0,81.09,55,121.29,121.29,0,0,0,15.36-1c49.82-6.37,73.59-32.13,84-54.41,10.36,22.28,34.13,48,84,54.41a121.26,121.26,0,0,0,15.35,1,84.74,84.74,0,0,0,81.21-55,78.64,78.64,0,0,0,51.87-29.26,98.82,98.82,0,0,0,23.31-83.67,93.9,93.9,0,0,0,43.7-56.78A71.9,71.9,0,0,0,587.88,387.08Z" transform="translate(1.68 0)"/></g><g id="Layer_3" data-name="Layer 3"><path class="cls-2" d="M226.18,677.48l4.87,24.08a14.53,14.53,0,0,0,26.27-.6l4.87-31.2" transform="translate(1.68 0)"/><path class="cls-2" d="M287.29,623.39l4.87,82.1a14.52,14.52,0,0,0,26.26-.59l3.19-90.83" transform="translate(1.68 0)"/><path class="cls-2" d="M322.45,38.64l-4.87-24.07a14.53,14.53,0,0,0-26.27.59l-4.86,28" transform="translate(1.68 0)"/><path class="cls-2" d="M384.51,35.43l-4.86-24.07a14.53,14.53,0,0,0-26.27.59l-4.87,27.94" transform="translate(1.68 0)"/><path class="cls-3" d="M138.51,361.48a4.69,4.69,0,1,1,9.23-1.64c0,.12,0,.25.06.38,2.87,20.94,14.58,45.66,34.23,53.64,15.73,6.39,34.06,1.54,54.52-14.43a4.69,4.69,0,1,1,6,7.22,1.73,1.73,0,0,1-.21.17,81.85,81.85,0,0,1-40.48,18.68,39.82,39.82,0,0,1-9.57,24.1,44,44,0,0,1-33.34,13h-.08a4.69,4.69,0,0,1-.09-9.38,35,35,0,0,0,26.53-9.91,30.13,30.13,0,0,0,7.17-17.61,46,46,0,0,1-13.92-3.16C153.79,412.52,141.51,383.39,138.51,361.48Z" transform="translate(1.68 0)"/><path class="cls-3" d="M179.34,306.36A61,61,0,0,1,201.74,320a56.17,56.17,0,0,1,15.85,41.68,4.69,4.69,0,0,1-9.37,0,47.19,47.19,0,0,0-13.05-35,66.74,66.74,0,0,0-42.48-15.94h-.09a4.69,4.69,0,0,1-.07-9.38,86.74,86.74,0,0,1,17.21,2.13,71.08,71.08,0,0,1,13.07-46.1,63.15,63.15,0,0,1,46.89-22.51,4.71,4.71,0,0,1,.78,9.38,54.15,54.15,0,0,0-40.21,18.86A64.36,64.36,0,0,0,179.34,306.36Z" transform="translate(1.68 0)"/><path class="cls-3" d="M469.23,353.7a4.69,4.69,0,0,1-9.23,1.65c0-.13,0-.25-.05-.38-2.88-21-14.58-45.67-34.23-53.64-15.74-6.39-34.07-1.54-54.53,14.43a4.69,4.69,0,0,1-6-7.23l.21-.16a81.8,81.8,0,0,1,40.48-18.68,39.75,39.75,0,0,1,9.58-24.1,43.93,43.93,0,0,1,33.33-13h.08A4.69,4.69,0,1,1,449,262a35,35,0,0,0-26.54,9.91,30.15,30.15,0,0,0-7.16,17.61,46.19,46.19,0,0,1,13.91,3.16C454,302.67,466.23,331.8,469.23,353.7Z" transform="translate(1.68 0)"/><path class="cls-3" d="M428.4,408.82A60.75,60.75,0,0,1,406,395.16a56.18,56.18,0,0,1-15.86-41.68,4.69,4.69,0,1,1,9.38,0,47.2,47.2,0,0,0,13,35,66.78,66.78,0,0,0,42.49,15.94h.08a4.69,4.69,0,1,1,.08,9.37A86,86,0,0,1,438,411.63a71.11,71.11,0,0,1-13.07,46.11,63.1,63.1,0,0,1-46.88,22.5,4.7,4.7,0,1,1-.79-9.37A54.23,54.23,0,0,0,417.48,452,64.38,64.38,0,0,0,428.4,408.82Z" transform="translate(1.68 0)"/></g><g id="Layer_1" data-name="Layer 1"><path class="cls-3" d="M323.27,485.4v35.52A77.21,77.21,0,0,1,300.91,574l-.8.8.75.75a77.36,77.36,0,0,1,22.4,53.25v66.67a18,18,0,0,1-36,0V630.14a41.4,41.4,0,0,0-12-29.23l-.55-.56-.6.61a41.29,41.29,0,0,0-11.93,29.18v65.35a18,18,0,0,1-36,0h0V628.8a77.29,77.29,0,0,1,22.35-53.17l.8-.81-.74-.75a77.32,77.32,0,0,1-22.41-53.24V454.16a18,18,0,1,1,36,0V519.5a41.37,41.37,0,0,0,12,29.24l.55.55.6-.6a41.35,41.35,0,0,0,11.94-29.19V485.4m6.53,0v34.1A47.79,47.79,0,0,1,280,553.28l-2.92,3a3.28,3.28,0,0,1-4.64,0l-2.87-2.89a47.92,47.92,0,0,1-13.89-33.84V454.16a11.47,11.47,0,0,0-22.94,0V520.7a70.9,70.9,0,0,0,20.52,48.78l3,3a3.27,3.27,0,0,1,0,4.61l-3.08,3.09a70.8,70.8,0,0,0-20.46,48.71v66.56a11.47,11.47,0,0,0,22.94,0V630.14a47.85,47.85,0,0,1,13.83-33.78l2.93-2.94a3.35,3.35,0,0,1,4.63,0l2.87,2.89a47.86,47.86,0,0,1,13.89,33.83v65.35a11.47,11.47,0,0,0,22.94,0V629.44s0-.48,0-.51a70.85,70.85,0,0,0-20.52-48.76l-3-3a3.27,3.27,0,0,1,0-4.61l3.08-3.09a70.8,70.8,0,0,0,20.46-48.71V485.4" transform="translate(1.68 0)"/><text class="cls-4" transform="translate(306.95 221.33)">TTACCC</text><rect class="cls-2" x="303.22" y="473.59" width="4.09" height="22.94" transform="translate(-178.11 790.33) rotate(-90)"/><path class="cls-3" d="M287.42,228.11l0-35.52a77.2,77.2,0,0,1,22.34-53.1l.8-.8-.74-.75a77.33,77.33,0,0,1-22.41-53.25V18a18,18,0,0,1,36,0V83.37a41.37,41.37,0,0,0,12,29.24l.55.55.6-.61a41.35,41.35,0,0,0,11.94-29.18V18a18,18,0,1,1,36,0h0V84.71a77.28,77.28,0,0,1-22.36,53.18l-.8.8.75.75a77.41,77.41,0,0,1,22.41,53.24v66.68a18,18,0,0,1-36,0V194a41.38,41.38,0,0,0-12-29.24l-.54-.55-.6.6A41.33,41.33,0,0,0,323.43,194v34.1m-6.54,0V194a47.89,47.89,0,0,1,13.83-33.78l2.93-2.95a3.27,3.27,0,0,1,4.63,0l2.88,2.89A47.91,47.91,0,0,1,355,194v65.35a11.47,11.47,0,0,0,22.94,0V192.81A70.81,70.81,0,0,0,357.45,144l-3-3a3.27,3.27,0,0,1,0-4.6l3.08-3.1A70.8,70.8,0,0,0,378,84.58V18A11.47,11.47,0,0,0,355,18V83.37a47.8,47.8,0,0,1-13.83,33.78l-2.92,2.94a3.35,3.35,0,0,1-4.63,0l-2.88-2.89a47.92,47.92,0,0,1-13.89-33.83V18A11.47,11.47,0,1,0,294,18V84.07s0,.48,0,.51a70.8,70.8,0,0,0,20.51,48.76l3,3a3.28,3.28,0,0,1,0,4.61l-3.08,3.1A70.69,70.69,0,0,0,294,192.79v35.32" transform="translate(1.68 0)"/><rect class="cls-2" x="303.35" y="217.12" width="4.09" height="22.94" transform="translate(535.67 -76.81) rotate(90)"/><polyline class="cls-5" points="212.39 497.19 175.97 497.19 175.97 652.48 212.39 652.48"/><polyline class="cls-5" points="276.4 61.04 154.68 61.04 154.68 216.33 276.4 216.33"/><polyline class="cls-5" points="175.97 574.83 109.2 574.83 109.2 138.68 154.68 138.68"/><line class="cls-5" x1="109.2" y1="356.76" x2="64.95" y2="356.76"/><polyline class="cls-5" points="401.66 216.33 438.08 216.33 438.08 61.03 401.66 61.03"/><polyline class="cls-5" points="337.65 652.48 459.37 652.48 459.37 497.19 337.65 497.19"/><polyline class="cls-5" points="438.08 138.68 504.85 138.68 504.85 574.83 459.37 574.83"/><line class="cls-5" x1="504.85" y1="356.76" x2="549.1" y2="356.76"/></g></svg>